
<svg width="64px" height="47px" viewBox="307 303 64 47" version="1.1" xmlns="http://www.w3.org/2000/svg" xmlns:xlink="http://www.w3.org/1999/xlink">
    <!-- Generator: Sketch 42 (36781) - http://www.bohemiancoding.com/sketch -->
    <desc>Created with Sketch.</desc>
    <defs></defs>
    <g id="if_cloud_370088" stroke="none" stroke-width="1" fill="none" fill-rule="evenodd" transform="translate(307.000000, 303.000000)">
        <g id="Layer_1" fill-rule="nonzero" fill="#fff">
            <path d="M35.800381,2.50671562 C43.735873,2.50671562 50.1911111,9.97193125 50.1911111,19.1516187 C50.1911111,19.2021437 50.1859048,19.2551656 50.1827302,19.3056906 C50.1765079,19.4284781 50.1691429,19.5512656 50.1671111,19.67655 L50.1130159,22.1929594 L52.2919365,22.2025062 C57.5655873,22.2193969 61.8554921,27.1969906 61.8554921,33.2967094 C61.8554921,39.3795375 57.5738413,44.3571312 52.311746,44.3884156 L51.8464762,44.3907656 L12.8224762,44.3907656 C6.95022222,44.3835687 2.17206349,38.8546062 2.17206349,32.0636937 C2.17206349,26.8018969 5.06806349,22.1182 9.3767619,20.4082812 L10.576,19.9340219 L10.7873016,18.4890656 C11.3098413,14.9226469 13.9580952,12.333975 17.0841905,12.333975 C18.0805079,12.333975 19.0433016,12.6012875 19.9459048,13.1262187 L21.8895238,14.2555406 L22.8274286,11.9872031 C25.2102857,6.22720625 30.3028571,2.50671562 35.800381,2.50671562 L35.800381,2.50671562 Z M35.800381,0.040684375 C29.2253968,0.040684375 23.5644444,4.4932 20.9047619,10.9229469 C19.7544127,10.2534906 18.4595556,9.86809062 17.0843175,9.86809062 C12.864254,9.86809062 9.36850794,13.4201156 8.6855873,18.077375 C3.65968254,20.0714969 0.0401269841,25.571525 0.0401269841,32.0638406 C0.0401269841,40.22965 5.7624127,46.8496 12.8203175,46.8567969 L52.3230476,46.8567969 L52.3230476,46.8544469 C58.7709206,46.8158187 63.9873016,40.761925 63.9873016,33.2967094 C63.9873016,25.81945 58.7584762,19.7582125 52.2980317,19.7366219 C52.3022222,19.5392219 52.3230476,19.3490187 52.3230476,19.1514719 C52.3230476,8.5968875 44.9257143,0.040684375 35.800381,0.040684375 L35.800381,0.040684375 Z" id="Shape"></path>
        </g>
    </g>
</svg>
