
<svg width="47px" height="50px" viewBox="0 0 47 50" version="1.1" xmlns="http://www.w3.org/2000/svg" xmlns:xlink="http://www.w3.org/1999/xlink">
    <!-- Generator: Sketch 42 (36781) - http://www.bohemiancoding.com/sketch -->
    <desc>Created with Sketch.</desc>
    <defs></defs>
    <path d="M43.9347826,29.8076923 L43.9347826,5.76923077 C43.9347826,4.51730769 43.0775435,3.45961538 41.8913043,3.06153846 L41.8913043,2.88461538 C41.8913043,1.29423077 40.5160435,0 38.826087,0 L8.17391304,0 C6.48395652,0 5.10869565,1.29423077 5.10869565,2.88461538 L5.10869565,3.06153846 C3.92245652,3.45961538 3.06521739,4.51730769 3.06521739,5.76923077 L3.06521739,17.3076923 C1.37526087,17.3076923 0,18.6019231 0,20.1923077 L0,45.1923077 C0,47.8432692 2.29176087,50 5.10869565,50 L42.9130435,50 L42.9130435,50 C42.985587,50 43.0581304,49.9980769 43.1316957,49.9951923 C45.3008478,49.8884615 47,48.1288462 47,45.9903846 L47,32.6923077 C47,31.1019231 45.6247391,29.8076923 43.9347826,29.8076923 Z M35.7608696,4.80769231 L40.8695652,4.80769231 C41.4335652,4.80769231 41.8913043,5.23846154 41.8913043,5.76923077 L41.8913043,11.5384615 L36.7826087,11.5384615 C36.2186087,11.5384615 35.7608696,11.1076923 35.7608696,10.5769231 L35.7608696,4.80769231 Z M8.17391304,1.92307692 L38.826087,1.92307692 C39.390087,1.92307692 39.8478261,2.35384615 39.8478261,2.88461538 L7.15217391,2.88461538 C7.15217391,2.35384615 7.60991304,1.92307692 8.17391304,1.92307692 Z M2.04347826,45.1923077 L2.04347826,20.1923077 C2.04347826,19.6615385 2.50121739,19.2307692 3.06521739,19.2307692 L11.1676087,19.2307692 C11.5098913,19.2307692 11.8276522,19.3903846 12.0176957,19.6586538 L14.8908261,23.7125 C15.4599348,24.5192308 16.4142391,25 17.4441522,25 L37.8043478,25 C38.3683478,25 38.826087,25.4307692 38.826087,25.9615385 L38.826087,46.1538462 C38.826087,46.8355769 39.0396304,47.4942308 39.3982609,48.0769231 L5.10869565,48.0769231 C3.41873913,48.0769231 2.04347826,46.7826923 2.04347826,45.1923077 Z M44.9565217,45.9903846 C44.9565217,47.0875 44.0890652,48.0211538 43.024413,48.0740385 C42.460413,48.0980769 41.9168478,47.9153846 41.5061087,47.5480769 C41.0963913,47.1807692 40.8695652,46.6865385 40.8695652,46.1538462 L40.8695652,25.9615385 C40.8695652,24.3711538 39.4943043,23.0769231 37.8043478,23.0769231 L17.4441522,23.0769231 C17.0998261,23.0769231 16.7810435,22.9163462 16.5899783,22.6471154 L13.7168478,18.5923077 C13.1477391,17.7875 12.1944565,17.3076923 11.1676087,17.3076923 L5.10869565,17.3076923 L5.10869565,5.76923077 C5.10869565,5.23846154 5.56643478,4.80769231 6.13043478,4.80769231 L33.7173913,4.80769231 L33.7173913,10.5769231 C33.7173913,12.1673077 35.0926522,13.4615385 36.7826087,13.4615385 L41.8913043,13.4615385 L41.8913043,46.1538462 C41.8913043,46.6855769 42.3480217,47.1153846 42.9130435,47.1153846 C43.4780652,47.1153846 43.9347826,46.6855769 43.9347826,46.1538462 L43.9347826,31.7307692 C44.4987826,31.7307692 44.9565217,32.1615385 44.9565217,32.6923077 L44.9565217,45.9903846 Z" id="Shape" stroke="none" fill="#fff" fill-rule="nonzero"></path>
    <rect id="Rectangle-path" stroke="none" fill="#fff" fill-rule="nonzero" x="9.19565217" y="7.69230769" width="20.4347826" height="1.92307692"></rect>
    <rect id="Rectangle-path" stroke="none" fill="#fff" fill-rule="nonzero" x="9.19565217" y="11.5384615" width="20.4347826" height="1.92307692"></rect>
    <rect id="Rectangle-path" stroke="none" fill="#fff" fill-rule="nonzero" x="17.3695652" y="15.3846154" width="12.2608696" height="1.92307692"></rect>
    <rect id="Rectangle-path" stroke="none" fill="#fff" fill-rule="nonzero" x="17.3695652" y="19.2307692" width="12.2608696" height="1.92307692"></rect>
</svg>
