<svg xmlns="http://www.w3.org/2000/svg" width="78.123" height="68.21" viewBox="0 0 78.123 68.21"><defs><style>.a{fill:#9b9b9b;}</style></defs><g transform="translate(0 -22.509)"><g transform="translate(0 22.509)"><g transform="translate(36.807)"><path class="a" d="M242.979,75.91c-2.334-.936-3.009-1.5-3.009-2.524,0-.818.619-1.773,2.366-1.773a6.568,6.568,0,0,1,2.74.614.862.862,0,0,0,.4.1.814.814,0,0,0,.761-.521l.424-1.085a.671.671,0,0,0-.362-.863,16.428,16.428,0,0,0-2.829-.738.147.147,0,0,1-.134-.149l-.006-1.573a.872.872,0,0,0-.881-.86h-.761a.872.872,0,0,0-.881.86l0,1.654c0,.127-.137.182-.188.194a4.567,4.567,0,0,0-3.812,4.445c0,2.7,2.234,3.924,4.646,4.84,1.928.757,2.715,1.525,2.715,2.65,0,1.225-1.114,2.081-2.71,2.081a9.554,9.554,0,0,1-3.225-.873.861.861,0,0,0-.372-.084.824.824,0,0,0-.779.541l-.405,1.1a.713.713,0,0,0,.361.89,14.359,14.359,0,0,0,3.422.951c.026,0,.16.051.16.173v1.647a.872.872,0,0,0,.882.86h.787a.872.872,0,0,0,.882-.86V85.873a.163.163,0,0,1,.144-.182A4.779,4.779,0,0,0,247.357,81C247.357,78.646,246.047,77.122,242.979,75.91Z" transform="translate(-221.338 -56.845)"/><path class="a" d="M187.819,22.509a20.658,20.658,0,1,0,20.657,20.658A20.658,20.658,0,0,0,187.819,22.509Zm0,36.528a15.87,15.87,0,1,1,15.87-15.87A15.87,15.87,0,0,1,187.819,59.037Z" transform="translate(-167.161 -22.509)"/></g><g transform="translate(0 43.292)"><path class="a" d="M149.966,227.156a52.563,52.563,0,0,1-16.46,5.611c-5.361.841-15.446-1.187-15.446-3.582,0-.907,8.845,2.236,14.2.808,4.1-1.095,3.52-4.932,1.289-5.439s-15.217-5.265-20.769-5.43c-2.615-.077-9.072.91-12.2,1.418-1.07.174-1.742.155-1.809,1.179-.311,4.76-.924,14.5-1.258,19.581-.007.108.142,1.552,1.335.536,1.305-1.113,3.135-2.346,4.829-1.962,2.656.6,25.635,4.813,28.805,4.076,4.534-1.054,17.37-8.661,19.831-11.025C156.126,229.262,153.161,225.392,149.966,227.156Z" transform="translate(-76.041 -219.121)"/><path class="a" d="M16.388,222.632l-12.038-.593a2.167,2.167,0,0,0-2.11,1.556L.051,243.467a1.312,1.312,0,0,0,1.271,1.7H14.663a1.777,1.777,0,0,0,1.82-1.622L17.949,224.4A1.642,1.642,0,0,0,16.388,222.632ZM9.3,242.538a3.328,3.328,0,1,1,3.328-3.328A3.328,3.328,0,0,1,9.3,242.538Z" transform="translate(0 -221.395)"/></g></g></g></svg>